<svg id="Capa_1" data-name="Capa 1" xmlns="http://www.w3.org/2000/svg" viewBox="0 0 200 200"><defs><style>.cls-1,.cls-2{fill:none;}.cls-1{stroke:#005792;stroke-linecap:round;stroke-linejoin:round;}.cls-2{stroke:#425968;stroke-miterlimit:10;}.cls-3{fill:#005792;}.cls-4{fill:#005792;}.cls-5{fill:#FDB44B;}</style></defs><title>Agile</title><path class="cls-1" d="M181.94,108.6l-11-9s-39,1.86-41.82,64.06"/><line class="cls-1" x1="181.94" y1="108.6" x2="187.93" y2="80.18"/><path class="cls-1" d="M18.47,107.13l11-9s34.81,7,47.15,40.46"/><path class="cls-2" d="M129.15,169.15c0-3.09.05-5.77.18-8.7.16-3.64.42-7.22.79-10.63a98.86,98.86,0,0,1,2.82-15.44,65.63,65.63,0,0,1,4.77-12.53,52,52,0,0,1,6.76-10.14,51.3,51.3,0,0,1,8.77-8.07c1.24-.91,2.53-1.79,3.82-2.6s2.62-1.6,4-2.34,2.74-1.44,4.15-2.1,2.88-1.29,4.35-1.87l1.7-.67,11.31,10.24,5.74-24.85L148.79,73l.79.73c.42.38,2.78,2.95,2.51,4s-3.4,2.14-3.87,2.3l-1.78.63-5.4,2a101.46,101.46,0,0,0-13.11,6,83.7,83.7,0,0,0-11.89,8,79.65,79.65,0,0,0-10.81,10.58,76.26,76.26,0,0,0-9,13.11,146.93,146.93,0,0,0-7.59,15.37A174.18,174.18,0,0,0,82.86,153c-1.42,5-2.75,10.33-4,16.16Z"/><path class="cls-2" d="M102.15,106.51s-16.39,20.2-21.55,44.65c0,0-.06.08-.09.12-2.63-12.35-8.61-23-11.38-27.51-3.26-5.28-9.81-11.33-13.73-14.93-.87-.81-1.62-1.49-2.16-2A58.65,58.65,0,0,0,43.18,99a75.9,75.9,0,0,0-11.62-5.79l-1.71-.69-11.31,10.3-6.63-25.3,40.37-6.14-.87.82a6.82,6.82,0,0,0-.62.65,10.61,10.61,0,0,0-1.31,1.76c-1.34,2.84,2.55,3.56,3.22,3.76a52,52,0,0,1,6.1,2.26c1.79.79,3.67,1.72,5.75,2.86s3.94,2.23,5.79,3.33l.64.38c1.81,1.07,3.65,2.16,5.55,3.23l2.23,1.28,4.58,2.7c.44.27,5.16,3.32,9.33,6C99.22,104.74,102.15,106.51,102.15,106.51Z"/><line class="cls-1" x1="18.47" y1="107.13" x2="12.47" y2="79.72"/><polygon class="cls-3" points="29.44 98.13 29.44 93.31 17.94 103.13 18.46 107.13 29.44 98.13"/><polygon class="cls-3" points="29.44 93.31 30.73 92.92 41.96 98.13 52.55 106.16 58.04 111.83 46.9 104.99 40.63 102.26 29.13 97.75 29.44 93.31"/><polygon class="cls-4" points="132.35 138.59 134.18 130.31 140.25 117.42 146.88 108.61 161.13 98.11 170.37 94.39 172.1 94.86 182.67 105.16 181.66 108.38 170.42 99.19 163.26 101.35 154.81 105.76 145.47 113.65 136.77 126.47 132.35 138.59"/><path class="cls-5" d="M125.75,64.72,124.64,64h0c-2.35-1.47-3.65-2.31-5.87-3.69l-6.3-3.93-5.84-3.64-5.47-3.41-5.48,3.41-5.84,3.63-6.24,3.88c-1.58,1-2.86,1.75-4.31,2.64h0l-2.92,1.76,1.25,0h9.83a3.58,3.58,0,0,1,.67,0,.92.92,0,0,1,.4.16.5.5,0,0,1,.18.29,1.25,1.25,0,0,1,0,.43q-.22,1.82-.43,3.72t-.44,4q-.23,2.08-.47,4.25t-.52,4.55a88.35,88.35,0,0,0-.44,11.47l17.62,11s8-8,11.58-10.94a84,84,0,0,0-.33-11.42c-.17-1.55-.34-3.06-.5-4.53s-.3-2.85-.45-4.23l-.41-4-.38-3.71a3.65,3.65,0,0,1,0-.6.36.36,0,0,1,.16-.31,1.12,1.12,0,0,1,.51-.11c.24,0,.57,0,1,0h10.55Z"/></svg>