<svg id="Capa_1" data-name="Capa 1" xmlns="http://www.w3.org/2000/svg" viewBox="0 0 200 200"><defs><style>.cls-1{fill:none;stroke:#415866;}.cls-2{fill:#259b93;}</style></defs><title>automated-processes</title><g id="Abengoa"><path class="cls-1" d="M100.73,183.22a83.22,83.22,0,0,0,0-166.44"/><path class="cls-1" d="M99.24,183.22c27.46-15.17,46.34-46.73,46.34-83.22S126.7,31.95,99.24,16.78"/><line class="cls-1" x1="100" y1="100" x2="183.23" y2="100"/><line class="cls-1" x1="100" y1="16.77" x2="100" y2="183.23"/><path class="cls-1" d="M100,183.23a82.92,82.92,0,0,0,56.31-21.94,100,100,0,0,0-56.31-17"/><path class="cls-1" d="M99.86,16.77a82.92,82.92,0,0,1,56.31,21.94,100,100,0,0,1-56.31,17"/><g id="E8qE3M"><path class="cls-2" d="M99.35,183.27a70.25,70.25,0,0,0-7.38,0c-5.51.25-7-3.22-7-7.35-0.08-7.33-4.19-11.69-10.18-14.25-6.52-2.78-13.12-2.31-18.73,2.68-3.06,2.72-5.91,3-8.85-.05-3.52-3.67-7.13-7.25-10.53-11-4.08-4.53-4.22-6.28-.06-10.84,6.49-7.13,5.73-15.76.86-22.75-2.92-4.19-7.34-4.61-11.61-5.54-8-1.74-8.42-2.2-8.13-10.58,0.15-4.32.34-8.64,0.31-13,0-3.7,2.16-5.12,5.33-5.7,12.09-2.24,17.13-7.8,17.51-20.08A12,12,0,0,0,38.36,58c-3.56-4.82-4-7.38,0-12.05A131.5,131.5,0,0,1,49.14,35.3c3.42-3.18,6.92-2.19,10.11.41,5.9,4.81,13.21,5.2,19.88,1.43,5.09-2.88,8.14-6.68,8.41-12.71,0.17-3.91,2-6.69,6.55-6.56,2.07,0.06,3.21.14,5.28,0.21m0,37.72C75.6,56.49,59.38,75.29,58,97c-1.58,24.89,16.38,45.42,41.35,46.88"/></g></g></svg>