<svg id="Capa_1" data-name="Capa 1" xmlns="http://www.w3.org/2000/svg" viewBox="0 0 200 200"><defs><style>.cls-1{fill:none;stroke:#005792;}.cls-2{fill:#FDB44B;}.cls-3{fill:#005792;}</style></defs><title>connected</title><g id="Connected"><line class="cls-1" x1="150.52" y1="47.25" x2="118.79" y2="76.36"/><line class="cls-1" x1="123.41" y1="110.66" x2="156.53" y2="127.68"/><line class="cls-1" x1="38.52" y1="154.77" x2="75.07" y2="118.23"/><line class="cls-1" x1="118.2" y1="174.53" x2="104.63" y2="125.98"/><line class="cls-1" x1="49.02" y1="31.17" x2="78.74" y2="72.29"/><path class="cls-2" d="M174.69,127.12a18.16,18.16,0,1,1-36.32-.09A18.16,18.16,0,1,1,174.69,127.12Z"/><path class="cls-2" d="M49,49.34A18.17,18.17,0,1,1,49.3,13,18.17,18.17,0,0,1,49,49.34Z"/><path class="cls-2" d="M52.65,154.79A14.13,14.13,0,1,1,38.56,140.6,14.12,14.12,0,0,1,52.65,154.79Z"/><path class="cls-2" d="M118.16,186.67a12.13,12.13,0,1,1,12.16-12.1A12.07,12.07,0,0,1,118.16,186.67Z"/><path class="cls-2" d="M150.41,59.39a12.14,12.14,0,0,1,.16-24.27A12.14,12.14,0,1,1,150.41,59.39Z"/><path class="cls-3" d="M96.48,66.55a30.27,30.27,0,1,0,30.27,30.27A30.27,30.27,0,0,0,96.48,66.55ZM96.16,117.6a20.78,20.78,0,1,1,21.1-20.74A20.85,20.85,0,0,1,96.16,117.6Z"/></g></svg>