<svg id="Capa_1" data-name="Capa 1" xmlns="http://www.w3.org/2000/svg" viewBox="0 0 200 200"><defs><style>.cls-1,.cls-2{fill:none;}.cls-1{stroke:#FDB44B;stroke-miterlimit:10;}.cls-2{stroke:#005792;}.cls-3{fill:#FDB44B;}.cls-4{fill:#005792;}</style></defs><title>engaging</title><g id="Engaging"><line class="cls-1" x1="63.91" y1="143.59" x2="74.73" y2="144.54"/><line class="cls-1" x1="74.73" y1="144.54" x2="87.35" y2="160.18"/><line class="cls-1" x1="63.41" y1="188" x2="87.35" y2="160.18"/><line class="cls-1" x1="87.35" y1="160.18" x2="100.04" y2="162.81"/><line class="cls-1" x1="100.04" y1="162.81" x2="123.52" y2="144.54"/><line class="cls-1" x1="123.52" y1="144.54" x2="122.09" y2="134.5"/><line class="cls-1" x1="100.04" y1="162.81" x2="145.48" y2="166.7"/><path class="cls-2" d="M137.47,145.71c0.12,0.24-.81-2.6-0.72-2.34,4.76,12.65,10.6,28.38,15.35,41,0.44,1.16.85,2.34,1.3,3.6H47.24v-0.41a27.83,27.83,0,0,0,1.64-4.07c1.59-4.09,3.72-10.19,5.29-14.3"/><path class="cls-2" d="M53.58,170.78l5.87-15.69c2.46-6.55,4.93-13.1,7.36-19.66a1.19,1.19,0,0,1,1.32-.93c4,0,8.08,0,12.12,0q4.35,5.72,8.7,11.45c1.19,1.57,2.34,3.15,3.51,4.73"/><path class="cls-2" d="M105.31,154.59c1.95-2.63,3.88-5.28,5.84-7.89q4.6-6.12,9.23-12.21c4,0,8.06,0,12.09,0a1.18,1.18,0,0,1,1.33.91c1.19,3.3,2.43,6.58,3.65,9.87"/><ellipse class="cls-3" cx="100.04" cy="161.63" rx="9.71" ry="3.89"/><path class="cls-2" d="M100.25,40.52A28.06,28.06,0,0,0,72.37,68.86c0,14.94,12.86,27.61,28,27.55A27.94,27.94,0,1,0,100.25,40.52Z"/><ellipse class="cls-2" cx="100.04" cy="162.81" rx="23.22" ry="9.31"/><path class="cls-4" d="M109.11,150.39q-3.7,5.18-7.4,10.36c-1.32,1.85-1.31,1.86-2.58.06L86.46,143c-2.06-3-4.1-6-6.19-9q-7.65-10.84-15.34-21.65c-0.63-1-1.23-1.93-1.9-2.86A83.38,83.38,0,0,1,51.09,86.32c-3.65-11.36-4.89-23-1.67-34.61,5.53-20,18.52-31.89,36.79-37.7,2.81-.89,5.74-1.35,8.62-2h10.61a0.93,0.93,0,0,0,1,.37,48.59,48.59,0,0,1,20.85,7.2c16.59,10.59,25.86,26,25.67,47-0.12,13.77-4.67,26.13-11.71,37.49-1.75,2.82-3.66,5.52-5.49,8.28q-8.15,11.54-16.29,23.09C115.95,140.41,112.54,145.41,109.11,150.39ZM68.18,68.32a32.2,32.2,0,0,0,32.14,32.27c17.48,0,32.13-14.51,32.12-31.87A32.31,32.31,0,0,0,99.93,36.33C82.66,36.33,68.18,50.92,68.18,68.32Z"/></g></svg>