<svg id="Capa_1" data-name="Capa 1" xmlns="http://www.w3.org/2000/svg" viewBox="0 0 200 200"><defs><style>.cls-1{fill:none;stroke:#415866;}.cls-2{fill:#415866;}.cls-3{fill:#259b93;}</style></defs><title>Offers_processing</title><g id="Generali"><path class="cls-1" d="M180.61,108a81,81,0,0,1-160.36,6.3"/><path class="cls-2" d="M19.42,108.28a30.22,30.22,0,0,0,5.94,7.77l-5-1-4.46,2.39A30.2,30.2,0,0,0,19.42,108.28Z"/><path class="cls-1" d="M19.3,93a81,81,0,0,1,160.42-7.46"/><path class="cls-2" d="M180.56,91.54a30.22,30.22,0,0,0-6-7.76l5,1,4.45-2.4A30.2,30.2,0,0,0,180.56,91.54Z"/><path class="cls-3" d="M107.3,57.8v7.35c9.79,1.84,16.85,6.63,18.9,17.27-4.85,0-9.46,0-14.07,0a1.87,1.87,0,0,1-1.28-.92c-1.64-3.06-4.3-4.49-7.61-5-4.07-.57-8.06-0.46-11.85,1.33-2,1-3.56,2.32-3.61,4.81a5.08,5.08,0,0,0,3.48,5.11c3.33,1.3,6.77,2.34,10.21,3.37,4.14,1.24,8.39,2.13,12.46,3.57,10.47,3.71,15.26,10.86,14.51,21.17-0.67,9.15-7.61,16.43-17.67,18.49-1.07.22-2.15,0.41-3.38,0.65v7.18H93.22v-7.32c-11.9-1.94-19-8.7-21.3-20.8,4.69,0,9.2,0,13.71.06a2.22,2.22,0,0,1,1.21,1.3,12.44,12.44,0,0,0,11.68,7.93,39.72,39.72,0,0,0,8.08-.58,9.51,9.51,0,0,0,6.25-4.18c2.63-3.8,1.73-8.32-2.49-10.16-3.6-1.57-7.52-2.38-11.29-3.56-4.68-1.47-9.56-2.51-14-4.56C73.65,95,70.56,81.61,78.36,72.4c3.17-3.75,7.41-5.65,12.08-6.76,0.84-.2,1.69-0.38,2.67-0.6V57.8H107.3Z"/></g></svg>