<svg id="Capa_1" data-name="Capa 1" xmlns="http://www.w3.org/2000/svg" viewBox="0 0 200 200"><defs><style>.cls-1,.cls-4{fill:none;}.cls-1{stroke:#415866;}.cls-2{fill:#415866;}.cls-3{fill:#259b93;}.cls-4{stroke:#259b93;stroke-miterlimit:10;}</style></defs><title>rising</title><g id="Colpensiones"><path class="cls-1" d="M17.78,172H32.24V143.46l18.13-3.16v31.39H70.94c0-1.66,0-3.24,0-4.82,0-10,.07-20.05-0.05-30.08,0-2.08.7-2.9,2.56-3.61,5.09-1.93,10.07-4.12,15.45-6.36v44.85h20.63c0-1.14,0-2.24,0-3.34,0-17.12,0-34.24,0-51.36a4.49,4.49,0,0,1,1.13-3.15c5.38-4.3,10.9-8.42,16.67-12.82v70.67h20.72c0-1,0-2,0-3,0-29.13,0-58.27.08-87.4a9.88,9.88,0,0,1,1.64-4.85c4.94-7.93,10-15.77,15.06-23.64L166,50.9v121h14.81"/><path class="cls-1" d="M17.78,141.87s99.59-5.67,147.77-104.74"/><path class="cls-2" d="M168.1,31.67a30.22,30.22,0,0,0,.57,9.76l-3.54-3.61-5-.51A30.2,30.2,0,0,0,168.1,31.67Z"/><path class="cls-1" d="M17.78,141.87s99.59-5.67,147.77-104.74"/><path class="cls-2" d="M168.1,31.67a30.22,30.22,0,0,0,.57,9.76l-3.54-3.61-5-.51A30.2,30.2,0,0,0,168.1,31.67Z"/><path class="cls-3" d="M92.35,85.18c-5.34-.2-10.7-0.17-16,0a20.6,20.6,0,0,0-19.4,18.11c-0.33,3.38-.05,6.81-0.05,10.22H56.63c0,2.85,0,5.7,0,8.56a1.31,1.31,0,0,0,1,1.55,113,113,0,0,0,15.29,3.54,180.12,180.12,0,0,0,39.31-23.72A20.53,20.53,0,0,0,92.35,85.18Z"/><path class="cls-4" d="M70.33,82.17A3.69,3.69,0,0,0,70,81.66a19.5,19.5,0,0,1-5.54-12.27c-0.08-1.17-.75-1.25-1.63-1.25-4.69,0-9.38-.11-14.06,0-11.19.33-19.83,8.2-20.67,19.18-0.46,6-.19,12.12-0.15,18.18a2,2,0,0,0,1.33,1.25c4.78,1.19,9.57,2.4,14.4,3.37,2.91,0.59,5.91.76,9.14,1.14C51.78,97.32,57,87.31,70.33,82.17Z"/><path class="cls-4" d="M137.33,79.8a20.55,20.55,0,0,0-13.64-11,12.07,12.07,0,0,0-2.85-.48c-5.28,0-10.57,0-15.86,0-2.06,8.32-2.06,8.32-6.2,13.93l0.68,0.26C108.37,86,113.83,92,115.7,100.68A192.51,192.51,0,0,0,137.33,79.8Z"/><path class="cls-3" d="M84.63,84A16.37,16.37,0,1,0,68.2,67.56,16.43,16.43,0,0,0,84.63,84Z"/><path class="cls-4" d="M56.37,66l0.14,0.41c2.38-.81,4.79-1.56,7.13-2.46a2.25,2.25,0,0,0,1.1-1.46,20.72,20.72,0,0,1,6.61-11.27,2.66,2.66,0,0,0,.81-1.79,15.88,15.88,0,0,0-7.92-13.8A16.37,16.37,0,0,0,39.85,53.28C41.61,60.88,49,66.61,56.37,66Z"/><path class="cls-4" d="M96.83,50.58A19,19,0,0,1,104.48,63a2.28,2.28,0,0,0,1.77,2.1c6.53,2,12.39.82,17.13-4.1,4.93-5.12,6.09-11.29,3.26-17.79s-8-9.67-14.16-9.91c-8.89.05-15.81,6.05-17,14A3,3,0,0,0,96.83,50.58Z"/><line class="cls-1" x1="17.78" y1="171.99" x2="180.85" y2="171.99"/></g></svg>