<svg id="Capa_1" data-name="Capa 1" xmlns="http://www.w3.org/2000/svg" viewBox="0 0 200 200"><defs><style>.cls-1{fill:#415866;}.cls-2{fill:#259b93;}</style></defs><title>Business_transfromation</title><g id="Legacy_Modernization" data-name="Legacy Modernization"><path class="cls-1" d="M132.31,156.18c-6,0-14-.11-14.15-0.11-0.63,0-6.7.09-12.1,0.11l-0.11-1a20.14,20.14,0,0,0,14.81-13.53l0.11-.35H133l1,6.2a6.37,6.37,0,0,0,2.47,4.11c2.55,1.88,3.58,2.8,3.36,3.67a1.21,1.21,0,0,1-1.18.78C137.94,156.16,135.4,156.18,132.31,156.18Zm-14.15-1.11c1.41,0,18.53.24,20.32,0a1.37,1.37,0,0,0,.32-0.07c-0.23-.56-2.19-2-3-2.58a7.26,7.26,0,0,1-2.87-4.79l-0.83-5.32H121.61a21.16,21.16,0,0,1-12.17,12.85C113.73,155.13,117.65,155.08,118.16,155.07Z"/><path class="cls-1" d="M182.11,136.75H121.66l0-.52c0-.1,0-0.2,0-0.3s0-.25,0-0.37A20,20,0,0,0,114.28,120l-1.09-.89h65.64V53.36H57.51V91l-0.29.13A26.7,26.7,0,0,0,49,96.94l-0.86.89V50.08A6.07,6.07,0,0,1,54.23,44H182.11a6.07,6.07,0,0,1,6.06,6.06V130.7A6.07,6.07,0,0,1,182.11,136.75Zm-59.4-1h59.4a5.06,5.06,0,0,0,5.06-5.06V50.08A5.07,5.07,0,0,0,182.11,45H54.23a5.07,5.07,0,0,0-5.06,5.06V95.39a27.67,27.67,0,0,1,7.34-5v-38H179.83v67.72h-63.9a21,21,0,0,1,6.78,15.49C122.72,135.63,122.71,135.69,122.71,135.75Z"/><path class="cls-2" d="M172.48,109H95V62.19h77.43V109ZM96,108h75.43V63.19H96V108Z"/><path class="cls-2" d="M89.06,98.65l-0.87-1A26.84,26.84,0,0,0,64.53,89L64,89.13V62.19h25.1V98.65ZM68.27,87.79a27.82,27.82,0,0,1,19.8,8.29V63.19H65V88A28,28,0,0,1,68.27,87.79Z"/><g id="Cloud2"><path class="cls-1" d="M101.61,156.68H33.72a22.32,22.32,0,1,1,6.88-43.56A27.78,27.78,0,0,1,96,115.19a21.42,21.42,0,0,1,5.56-.73A21.11,21.11,0,0,1,101.61,156.68ZM33.72,113a21.32,21.32,0,0,0,0,42.64h67.89a20.11,20.11,0,0,0,0-40.22,20.38,20.38,0,0,0-5.93.88l-0.74.22,0.1-.76a1.79,1.79,0,0,0,0-.23,26.78,26.78,0,0,0-53.5-1.74l0,0.66-0.62-.22A21.39,21.39,0,0,0,33.72,113Z"/><rect class="cls-2" x="51.57" y="152.85" width="1" height="1.25"/><path class="cls-2" d="M84.1,119l-1-.77,0.62-.79,1,0.77Zm-2.94-2.32-1-.77,0.62-.79,1,0.77Zm-2.94-2.32-1-.77,0.62-.79,1,0.77ZM75.28,112l-1-.77,0.62-.79,1,0.77Zm-2.94-2.32-1-.77,0.62-.79,1,0.77Zm-2.94-2.32-1-.77,0.62-.79,1,0.77Z"/><path class="cls-2" d="M75.1,139.94l0.5-.87,0.06,0ZM73,138.52l-1-.69,0.55-.83,1,0.69Zm-3.12-2.08-1-.69,0.55-.83,1,0.69Zm-3.12-2.08-1-.69,0.55-.83,1,0.69Zm-3.12-2.08-1-.69,0.55-.83,1,0.69Zm-3.12-2.08-1-.69,0.55-.83,1,0.69Zm-3.12-2.08-1-.69,0.55-.83,1,0.69Zm-3.12-2.08-1-.69,0.55-.83,1,0.69ZM51.16,124l-1-.69,0.55-.83,1,0.69Z"/><path class="cls-2" d="M50.69,144.18L50.43,143l1-.21L51.67,144Zm-0.77-3.66-0.26-1.22,1-.21,0.26,1.22Zm-0.77-3.66-0.26-1.22,1-.21,0.26,1.22Zm-0.77-3.66L48.12,132l1-.21L49.36,133Zm-0.77-3.66-0.26-1.22,1-.21,0.26,1.22Zm-0.77-3.66-0.26-1.22,1-.21,0.26,1.22Z"/><path class="cls-2" d="M76.45,137.64l-0.39-1.18,0.95-.32,0.39,1.18Zm-1.18-3.55-0.39-1.18,0.95-.32,0.39,1.18Zm-1.18-3.55-0.4-1.18,0.95-.32,0.4,1.18ZM72.9,127l-0.4-1.18,0.95-.32,0.4,1.18Zm-1.18-3.55-0.39-1.18,0.95-.32,0.39,1.18Zm-1.18-3.55-0.39-1.18,0.95-.32,0.39,1.18Zm-1.18-3.55-0.39-1.18,0.95-.32L70.29,116Zm-1.18-3.55-0.39-1.18,0.95-.32,0.39,1.18ZM67,109.23L66.58,108l0.95-.32,0.39,1.18Z"/><path class="cls-2" d="M50.76,119.9L50,119.19l0.88-.88L51.64,119Zm2.65-2.65-0.71-.71,0.88-.88,0.71,0.71Zm2.65-2.65-0.71-.71,0.88-.88,0.71,0.71ZM58.7,112L58,111.25l0.88-.88,0.71,0.71Zm2.65-2.65-0.71-.71,0.88-.88,0.71,0.71Z"/><path class="cls-2" d="M24.86,134.46l-0.5-.86,1.08-.63,0.5,0.86Zm3.23-1.89-0.5-.86,1.08-.63,0.5,0.86Zm3.23-1.89-0.5-.86,1.08-.63,0.5,0.86Zm3.23-1.89-0.5-.86,1.08-.63,0.5,0.86Zm3.23-1.89-0.5-.86,1.08-.63,0.5,0.86ZM41,125l-0.5-.86,1.08-.63,0.5,0.86Z"/><path class="cls-2" d="M46.55,148.64l-1.12-.54,0.44-.9L47,147.74ZM43.18,147l-1.12-.54,0.44-.9,1.12,0.54Zm-3.37-1.63-1.12-.54,0.44-.9,1.12,0.54Zm-3.37-1.63-1.12-.54,0.44-.9,1.12,0.54Zm-3.37-1.63-1.12-.54,0.44-.9,1.12,0.54Zm-3.37-1.63-1.12-.54L29,139l1.12,0.54Zm-3.37-1.63-1.12-.54,0.44-.9L26.77,138Z"/><path class="cls-2" d="M55.55,149.63l-0.3-1,1.19-.37,0.3,1Zm3.57-1.13-0.3-1,1.19-.37,0.3,1Zm3.57-1.13-0.3-1,1.19-.37,0.3,1Zm3.57-1.12-0.3-1,1.19-.38,0.3,1Zm3.57-1.13-0.3-1,1.19-.37,0.3,1ZM73.4,144l-0.3-1,1.19-.37,0.3,1Z"/><path class="cls-2" d="M82.08,141.69l-0.07-1,1.25-.08,0.07,1Zm3.74-.25-0.07-1,1.25-.08,0.07,1Zm3.74-.25-0.07-1,1.25-.08,0.07,1Zm3.74-.25-0.07-1,1.25-.08,0.07,1Zm3.74-.25-0.07-1,1.25-.08,0.07,1Zm3.74-.25-0.07-1,1.24-.08,0.07,1Zm3.74-.25-0.07-1,1.25-.08,0.07,1Z"/><path class="cls-2" d="M107.78,137.48l-0.2-.16,0.63-.78,0.2,0.16Zm-2.15-1.72-1-.78,0.63-.78,1,0.78Zm-2.92-2.34-1-.78,0.63-.78,1,0.78Zm-2.92-2.34-1-.78,0.63-.78,1,0.78Zm-2.92-2.34-1-.78,0.63-.78,1,0.78Zm-2.92-2.34-1-.78,0.63-.78,1,0.78ZM91,124l-1-.78,0.63-.78,1,0.78Z"/><path class="cls-2" d="M80.85,138l-0.94-.35,0.44-1.17,0.94,0.35Zm1.31-3.51-0.94-.35L81.66,133l0.94,0.35ZM83.47,131l-0.94-.35L83,129.5l0.94,0.35Zm1.31-3.51-0.94-.35L84.29,126l0.94,0.35Z"/><path class="cls-2" d="M68.95,103.33l-0.46-.89,1.11-.57,0.46,0.89Zm3.33-1.71-0.46-.89,1.11-.57L73.39,101Zm3.33-1.71L75.15,99l1.11-.57,0.46,0.89Zm3.33-1.71-0.46-.89,1.11-.57L80,97.62Zm3.33-1.71-0.46-.89L82.92,95l0.46,0.89Zm3.33-1.71-0.45-.89h0Z"/><path class="cls-2" d="M19.59,132.73l-0.88-.88,0.71-.71L20.3,132Zm-2.65-2.65-0.88-.88,0.71-.71,0.88,0.88Zm-2.65-2.65-0.88-.88,0.71-.71L15,126.73Z"/><path class="cls-2" d="M43.62,118.11l-0.74-1,0.8-.6,0.74,1Zm-2.23-3-0.74-1,0.8-.59,0.74,1Z"/><path class="cls-2" d="M62.67,102.55l-0.86-.9,0.72-.69,0.86,0.9Zm-2.59-2.71-0.86-.9,0.72-.69,0.86,0.9ZM57.5,97.13l-0.86-.9,0.72-.69,0.86,0.9Zm-2.59-2.71L54,93.52l0.72-.69,0.86,0.9Z"/><path class="cls-2" d="M83.23,156.32L83,155.46l1-.28L84.19,156Zm-0.93-3.26L82,151.86l1-.28,0.34,1.2Zm-1-3.6-0.34-1.2,1-.28,0.34,1.2Zm-1-3.6-0.34-1.2,1-.28,0.34,1.2Z"/><path class="cls-2" d="M112.8,151.26l-0.42-1.18,0.94-.33,0.42,1.18Zm-1.25-3.53-0.42-1.18,0.94-.33,0.42,1.18Zm-1.25-3.53L109.88,143l0.94-.33,0.42,1.18Z"/><path class="cls-2" d="M110.84,136.29l-1-.2,0.25-1.22,1,0.2Zm0.73-3.67-1-.2,0.24-1.22,1,0.2Zm0.73-3.67-1-.2,0.24-1.22,1,0.2Zm0.73-3.67-1-.2,0.24-1.22,1,0.2Zm0.73-3.67-1-.2,0.25-1.22,1,0.2Z"/><path class="cls-2" d="M89.58,119.26l-0.46-.89,1.11-.58,0.46,0.89Zm3.32-1.74-0.46-.89,1.11-.58L94,116.94Z"/><path class="cls-2" d="M15.83,146.49l-0.8-.6,0.5-.67,0.8,0.6Zm2-2.67-0.8-.6,0.75-1,0.8,0.6Zm2.25-3-0.8-.6,0.75-1,0.8,0.6Z"/><circle class="cls-2" cx="47.07" cy="121.21" r="3.33"/><circle class="cls-2" cx="65.39" cy="104.55" r="3.33"/><circle class="cls-2" cx="78.71" cy="141.19" r="3.33"/><circle class="cls-2" cx="87.04" cy="121.21" r="3.33"/><circle class="cls-2" cx="22.09" cy="136.19" r="3.33"/><circle class="cls-2" cx="110.35" cy="139.52" r="3.33"/><circle class="cls-2" cx="52.07" cy="149.52" r="3.33"/></g></g></svg>