<svg id="Capa_1" data-name="Capa 1" xmlns="http://www.w3.org/2000/svg" viewBox="0 0 200 200"><defs><style>.cls-1{fill:#415866;}.cls-2,.cls-4{fill:none;stroke:#415866;}.cls-3{fill:#259b93;}.cls-4{stroke-miterlimit:10;}</style></defs><title>process_automation</title><g id="Process_Automation" data-name="Process Automation"><g id="widget_xchange" data-name="widget xchange"><circle class="cls-1" cx="178.48" cy="43.12" r="3.3"/><circle class="cls-1" cx="165.99" cy="43.12" r="3.3"/><circle class="cls-1" cx="152.89" cy="43.12" r="3.3"/><rect class="cls-1" x="17.08" y="41.31" width="115.33" height="3.61" rx="1.8" ry="1.8"/><rect class="cls-2" x="11.5" y="34.98" width="176.49" height="130.87" rx="5.5" ry="5.5"/></g><circle class="cls-3" cx="39.61" cy="88.1" r="10.17"/><circle class="cls-3" cx="157.15" cy="124.59" r="10.43"/><rect class="cls-3" x="69.23" y="77.93" width="20.35" height="20.35"/><rect class="cls-3" x="69.23" y="114.26" width="20.35" height="20.35"/><line class="cls-4" x1="66.18" y1="88.1" x2="51.81" y2="88.1"/><line class="cls-4" x1="63.16" y1="85.08" x2="66.18" y2="88.1"/><line class="cls-4" x1="66.18" y1="88.1" x2="63.16" y2="91.12"/><line class="cls-4" x1="112.32" y1="88" x2="96.54" y2="88"/><line class="cls-4" x1="109.29" y1="84.98" x2="112.32" y2="88"/><line class="cls-4" x1="112.32" y1="88" x2="109.29" y2="91.02"/><path class="cls-4" d="M66.18,123.73H44.31A4.71,4.71,0,0,1,39.61,119V102.18"/><line class="cls-4" x1="63.16" y1="120.71" x2="66.18" y2="123.73"/><line class="cls-4" x1="66.18" y1="123.73" x2="63.16" y2="126.76"/><path class="cls-4" d="M142.79,125.25H132.22a4.71,4.71,0,0,1-4.71-4.71V103.7"/><line class="cls-4" x1="139.77" y1="122.23" x2="142.79" y2="125.25"/><line class="cls-4" x1="142.79" y1="125.25" x2="139.77" y2="128.27"/><rect class="cls-3" x="119.68" y="80.28" width="15.65" height="15.65" transform="translate(99.64 -64.36) rotate(45)"/><line class="cls-2" x1="12.01" y1="51.05" x2="187.99" y2="51.05"/></g></svg>